<svg version="1.2" xmlns="http://www.w3.org/2000/svg" viewBox="0 0 102 45" width="102" height="45">
	<title>Nytt projekt</title>
	<style>
		.s0 { fill: #253926 } 
	</style>
	<path id="Leafy" class="s0" aria-label="Leafy"  d="m1.7 24.9q0-3 0.1-5.9 0.1-3 0.1-6 0-1.8-0.2-3.6-0.2-1.7-0.2-3.5 0-0.5 0.4-0.9 0.5-0.4 1.2-0.4 1.2 0 1.9 0.4 0.6 0.4 0.9 1 0.2 0.5 0.2 1.3 0 0.7 0 1.4 0 0.2 0 0.8 0.1 0.6 0.1 1.4 0.1 0.7 0.1 1.3 0 0.6 0 0.8v1.3q0 2.5-0.1 5-0.1 2.5-0.1 5.1v1.6q0 0.2 0.1 0.6 0.1 0.3 0.1 0.3h0.5l12.4-3.7q0.4-0.2 0.7-0.2 0.3-0.1 0.7-0.1 0.3 0 0.7 0.1 0.4 0 0.8 0.1 0.4 0 0.7 0.2 0.3 0.2 0.3 0.6 0 0.9-1.3 1.5-1.7 0.7-3.5 1.3-1.8 0.5-3.6 0.9l-0.3 0.1q-2.5 0.5-4.7 1.5-2.1 1-4.5 1.8h-0.4q-1.5 0-2.1-0.7-0.7-0.7-0.9-1.6-0.2-1-0.2-2 0.1-1.1 0.1-1.8zm44.8-5q-0.1 0.7-0.3 1.1-0.1 0.4-0.4 0.7-0.3 0.3-0.9 0.7-0.6 0.3-1.6 0.9-1 0.6-2.4 1.6-1.5 0.9-3.6 2.5-0.8 0.6-1.7 1.2-0.9 0.6-1.9 1.2-0.9 0.4-2 0.7-1 0.3-2.2 0.3-2.2 0-3.3-1.1-1-1.1-1-2.6 0-1 0-1.6 0.1-0.7 0.4-1.8-0.5-0.4-0.9-0.6-0.5-0.3-0.5-0.8 0-0.5 0.3-0.7 0.3-0.1 0.7-0.2 0.4 0 0.8-0.1 0.3-0.1 0.5-0.3 0.1-0.3 0.4-0.9 0.3-0.6 0.6-1.3 0.3-0.7 0.6-1.3 0.3-0.6 0.4-0.8 0.3-0.7 0.8-1.4 0.4-0.7 1-1.2 0.6-0.6 1.4-0.9 0.9-0.4 2-0.4 0.6 0 1.5 0.5 0.9 0.4 1.8 1 0.8 0.6 1.4 1.3 0.5 0.6 0.5 1.1 0 0.6-0.3 1.1-0.4 0.5-1 0.9-0.5 0.4-1.1 0.7-0.6 0.4-1.2 0.7 0 0-0.2 0.1-0.1 0.1-0.2 0.1-0.1 0-0.3 0.2-0.2 0.1-0.4 0.3-0.2 0.1-0.4 0.3-0.1 0.1-0.2 0.2-0.2 0.1-0.6 0.4-0.4 0.2-1 0.5-0.5 0.3-1 0.6-0.4 0.2-0.5 0.3l-0.2 0.3q-0.1 0.1-0.3 0.7 0 0.5-0.1 1.2-0.1 0.6-0.2 1.3-0.1 0.7-0.1 1.1 0 0.1 0.1 0.1 0.1 0.1 0.1 0.1 0.5 0 0.8-0.3 0.4-0.3 0.8-0.4l8.4-5.8 2.1-2.4q0.3-0.3 1-0.6 0.8-0.4 1.6-0.4 0.8 0 1.4 0.4 0.6 0.4 0.6 1.5zm-15-1.4l3.5-1.6q0.2-0.2 0.2-0.5-0.1-0.3-0.3-0.6-0.2-0.2-0.6-0.2-0.4-0.1-0.7 0.2-0.2 0.2-0.6 0.7-0.3 0.4-0.8 0.9-0.3 0.5-0.6 0.9-0.2 0.3-0.1 0.2zm28.8 1.8l-0.2-0.2q-0.5 0.6-1.1 1.5-0.6 0.9-1.3 1.9-0.6 1-1.5 2-0.8 1-1.7 1.8-0.8 0.8-1.7 1.4-1 0.5-2 0.7-0.4 0-0.9-0.1-0.5-0.1-1.1-0.2-0.5-0.1-0.9-0.4-0.3-0.2-0.3-0.7 0.1-4 0.8-7.2 0.8-3.3 2.3-5.7 1.6-2.5 4.1-4.2 2.4-1.6 5.9-2.3 0.1 0 0.4 0 0.3-0.1 0.4-0.1 1.6 0 2.3 1.1 0.7 1.1 1 3.5 0.4 2.4 0.5 6.2 0.1 3.8 0.5 9 0.2 0.5 0.2 0.8 0.1 0.3 0.1 0.7 0 0.6-0.5 0.9-0.5 0.3-1.2 0.3-1.5 0-2.2-0.6-0.6-0.6-0.8-1.7 0 0-0.1-0.6-0.1-0.6-0.2-1.4-0.1-0.7-0.2-1.5-0.1-0.8-0.2-1.3v-0.2q-0.1-0.4-0.1-0.9 0-0.6-0.1-1.2-0.1-0.6-0.2-1.3zm-1.4-7.9q-1.4 0.7-2.7 2.1-1.4 1.3-2 2.6-0.2 0.5-0.5 1.6-0.4 1-0.6 2-0.2 1-0.4 1.8-0.1 0.8-0.1 1.1 0 0 0.1-0.1 0.1-0.1 0.1-0.1 3.3-2.4 4.6-5.1 1.3-2.7 1.5-5.9zm12.1 10.2q-1.1 0.1-1.8-0.2-0.6-0.3-0.9-0.7-0.3-0.5-0.3-0.9 0.1-0.5 0.3-0.6 0.2 0 0.7-0.3 0.6-0.3 0.7-0.3 0 0 0.1-0.1 0.1-0.1 0.1-0.1v-0.7q0-2.2-0.3-4.3-0.3-2.1-0.3-4.3 0-1.4 0-2.9 0.1-1.6 0.7-2.8 0.6-1.3 1.9-2.1 1.3-0.9 3.8-0.9 0.4 0 1 0 0.6 0 1 0.1 0.6 0.1 0.9 0.4 0.4 0.2 0.4 0.7 0 0.7-0.5 0.9-0.4 0.2-1.1 0.3-0.7 0.1-1.4 0.2-0.7 0-1.3 0.6-0.1 0-0.2 0.4-0.2 0.3-0.2 0.4-0.1 0.3-0.2 0.8-0.1 0.4-0.2 0.9 0 0.5-0.1 0.9-0.1 0.3-0.1 0.3 0 0.1 0 0.4 0 0.2-0.1 0.5 0 0.4 0 0.8 0 0.3 0 0.6 0 0.8 0 1.5 0 0.7 0.1 1.4 0.1 0.7 0.2 1.4 0.1 0.7 0.2 1.5h0.4l7.1-3.1q0.7-0.1 1.3-0.4 0.6-0.3 1.3-0.3 0.8 0 1.5 0.3 0.8 0.3 0.8 0.9 0 0.4-0.2 0.6-0.3 0.2-0.5 0.5-0.2 0.1-0.7 0.3-0.6 0.2-0.8 0.3-0.4 0.1-1.4 0.6-0.9 0.4-1.9 0.8-1 0.5-1.8 0.9-0.8 0.3-1.1 0.5-0.4 0.2-0.9 0.4-0.5 0.3-1 0.6-0.5 0.3-0.9 0.5-0.3 0.2-0.3 0.2v0.4l1.3 3.3q0 0.2 0 0.3 0 0.1 0.2 0.2l2.5 5.6q0.2 0.7-0.4 1.2-0.7 0.4-1.5 0.4-0.9 0-1.8-0.3-0.9-0.4-1.2-1.2l-2.9-7zm23.6 19.2q-0.1-0.9-0.2-2 0-1.2 0-2.5 0-1.3 0-2.6 0.1-1.3 0.2-2.4v-1.4q-0.3-0.3-0.6-0.6-0.4-0.3-1.3-1.2-0.9-0.9-2.6-2.6-1.7-1.7-4.5-4.9-1.1-0.8-1.4-1.4-0.3-0.6-0.2-0.9 0.1-0.4 0.5-0.5 0.5-0.2 0.9-0.2 1 0 1.9 0.4 0.8 0.3 1.5 0.9 0.7 0.5 1.2 1.2 0.6 0.6 1.1 1.2 0.3 0.4 0.8 0.9 0.4 0.5 0.9 1.1 0.5 0.5 0.8 0.9 0.4 0.4 0.4 0.4l0.6 0.5v-4.1q0-2-0.1-3.8-0.1-1.9-0.1-3.8 0-0.5 0.5-0.9 0.5-0.3 1.3-0.3 0.9 0.1 1.3 0.2 0.4 0.2 0.9 0.7 0.4 0.4 0.4 1 0 0.6 0 1.1 0.2 3.7 0.3 7.4 0.2 3.7 0.2 7.4 0 0.4 0 1.5 0 1 0 2.4 0 1.3 0 2.8 0.1 1.5 0.1 2.8 0 1.2 0 2 0.1 0.8 0.1 0.7 0 0.6-0.6 0.9-0.5 0.3-1.3 0.3-1 0-1.5-0.2-0.5-0.3-0.8-0.6-0.2-0.4-0.3-0.9-0.1-0.4-0.4-0.9z"/>
</svg>